<?xml version="1.0" standalone="no"?><!DOCTYPE svg PUBLIC "-//W3C//DTD SVG 1.1//EN" "http://www.w3.org/Graphics/SVG/1.1/DTD/svg11.dtd"><svg t="1547174666655" class="icon" style="" viewBox="0 0 1024 1024" version="1.1" xmlns="http://www.w3.org/2000/svg" p-id="2584" xmlns:xlink="http://www.w3.org/1999/xlink" width="200" height="200"><defs><style type="text/css"></style></defs><path d="M511.796215 39.366413a472.387802 472.387802 0 0 1 334.60786 806.995662A472.436802 472.436802 0 1 1 178.271355 178.228355 469.336803 469.336803 0 0 1 511.796215 39.366413m0-39.365983a511.753785 511.753785 0 1 0 362.360848 150.376937A510.179786 510.179786 0 0 0 511.797215 0.00043z" fill="#F97D7D" p-id="2585"></path><path d="M511.796215 108.256385a403.497831 403.497831 0 1 1-285.40088 118.09695 400.840832 400.840832 0 0 1 285.40088-118.09695m0-9.840996a413.339826 413.339826 0 1 0 292.289877 121.048949 412.059827 412.059827 0 0 0-292.289877-121.049949z" fill="#F97D7D" p-id="2586"></path><path d="M726.733125 332.148291l-8.266997-25.88299-25.980989-7.872996a1.967999 1.967999 0 0 1-0.59-3.148999l22.043991-15.844993-0.59-27.161989a1.967999 1.967999 0 0 1 3.148999-1.672999l21.649991 15.745993 25.686989-8.955996a1.967999 1.967999 0 0 1 2.558999 2.459999l-8.561996 25.588989 16.434993 21.649991a1.967999 1.967999 0 0 1-1.574999 3.149999h-26.964989l-15.450994 22.43799a1.967999 1.967999 0 0 1-3.542998-0.491999z m-85.226964-68.397972l-17.517993-20.764991-27.063989 3.049999a1.967999 1.967999 0 0 1-1.869999-2.951999l14.269994-23.12699-10.922995-24.89899a1.967999 1.967999 0 0 1 2.262999-2.656999l26.374989 6.494997 20.272991-18.107992a1.967999 1.967999 0 0 1 3.247999 1.28l1.967999 27.063988 23.42299 13.679994a1.967999 1.967999 0 0 1 0 3.541999l-25.095989 9.840996-5.805998 26.571989a1.967999 1.967999 0 0 1-3.542998 0.983999z m-104.909956-30.507987l-24.10999-12.399995-23.91599 12.793995a1.967999 1.967999 0 0 1-2.853999-2.066999l4.329998-26.768989-19.681992-18.796992a1.967999 1.967999 0 0 1 1.082-3.345999l26.866989-4.132998 11.809995-24.50499a1.967999 1.967999 0 0 1 3.542998 0l12.202995 24.30799 26.866989 3.640999a1.967999 1.967999 0 0 1 1.082999 3.345998l-19.682991 19.092992 4.821998 26.767989a1.967999 1.967999 0 0 1-2.360999 2.066999zM233.285332 487.840225l-12.498995 23.91399 12.793995 23.91499a1.967999 1.967999 0 0 1-2.065999 2.853999l-26.769989-4.329998-18.795992 19.681991a1.967999 1.967999 0 0 1-3.345999-1.081999l-4.133998-26.866989-24.50499-11.809995a1.967999 1.967999 0 0 1 0-3.542998l24.30799-12.202995 3.641999-26.866989a1.967999 1.967999 0 0 1 3.345998-1.083l19.091992 19.682992 26.768989-4.821998a1.967999 1.967999 0 0 1 2.164999 2.558999z m11.907995 108.648955l-2.262999 27.063988 21.059991 17.221993a1.967999 1.967999 0 0 1-0.787 3.444998l-26.965988 6.199998-9.840996 25.291989a1.967999 1.967999 0 0 1-3.542999 0l-14.072994-23.22599-27.161988-1.573999a1.967999 1.967999 0 0 1-1.378-3.247999l17.713993-20.567991-6.888997-26.276989a1.967999 1.967999 0 0 1 2.657999-2.361999l25.094989 10.529995 22.831991-14.662994a2.076999 2.076999 0 0 1 3.542998 2.165z m52.552978 95.854959l8.266996 26.079989 25.98099 7.872997a1.967999 1.967999 0 0 1 0.589999 3.444999l-22.04399 15.843993 0.589999 27.162989a1.967999 1.967999 0 0 1-3.148998 1.672999l-21.847991-16.631993-25.685989 8.954996a1.967999 1.967999 0 0 1-2.557999-2.459999l8.462996-25.784989-16.434993-21.649991a1.967999 1.967999 0 0 1 1.574999-3.149999h27.161989l15.549993-22.33999a1.967999 1.967999 0 0 1 3.541999 0.983999z m85.226964 68.397972l17.615993 20.666991 27.063988-2.656999a1.967999 1.967999 0 0 1 1.87 2.951999l-14.269994 23.12799 10.923995 24.89799a1.967999 1.967999 0 0 1-2.263999 2.657998l-26.374989-6.495997L377.264272 844.000076a1.967999 1.967999 0 0 1-3.247999-1.279l-1.967999-27.063989-23.61999-13.777994a1.967999 1.967999 0 0 1 0-3.542998l25.095989-9.840996 5.806998-26.571989a1.967999 1.967999 0 0 1 3.640998-1.179999z m104.909956 30.507987l23.91399 12.399995 23.91499-12.792995a1.967999 1.967999 0 0 1 2.853999 2.065999l-4.329998 26.769989 19.681991 18.795992a1.967999 1.967999 0 0 1-1.081999 3.345998l-26.669989 4.526999-11.809995 24.505989a1.967999 1.967999 0 0 1-3.542999 0l-12.202994-24.505989-26.866989-3.639999a1.967999 1.967999 0 0 1-1.083-3.346998l19.682992-19.091992-4.821998-26.768989a1.967999 1.967999 0 0 1 2.361999-2.263999z m303.409873-254.694893l12.399995-24.11199-12.792995-23.91499a1.967999 1.967999 0 0 1 2.065999-2.853999l26.769989 4.329998 18.795992-19.681991a1.967999 1.967999 0 0 1 3.345998 1.081999l4.526999 26.866989 24.505989 11.809995a1.967999 1.967999 0 0 1 0 3.542998l-24.505989 12.202995-3.639999 26.866989a1.967999 1.967999 0 0 1-3.346998 1.082999l-19.091992-19.682991-26.768989 4.821998a1.967999 1.967999 0 0 1-2.263999-2.360999z m-11.907995-108.649955l2.263999-27.063988-21.059991-17.024993a1.967999 1.967999 0 0 1 0.786999-3.444999l25.979989-6.396997 9.841996-25.291989a1.967999 1.967999 0 0 1 3.542999 0l14.072994 23.22599 27.162988 1.573999a1.967999 1.967999 0 0 1 1.378 3.247999l-17.714993 20.567991 6.888997 26.276989a1.967999 1.967999 0 0 1-2.656998 2.361999l-25.09599-10.529995-22.339991 14.367994a1.967999 1.967999 0 0 1-3.049998-1.87z m-409.008829 27.752989c14.171994 14.171994 20.568991 11.907995 43.203982-7.183997a40.250983 40.250983 0 0 0 5.904998 14.072994c-26.276989 21.257991-37.495984 24.01299-59.048975 2.853999l-48.51798-48.61698c-20.764991-20.764991-23.61999-30.901987-7.675997-46.84498l64.952973-64.952973 9.840996 9.840996-21.158991 20.765991 67.807971 67.905972 34.050986-34.051986-84.439965-84.044965 9.841996-9.841996 94.279961 94.279961-59.047976 59.049975-9.840995-9.841996 6.494997-6.494997-68.593971-67.413972-34.248986 34.247986c-8.167997 8.167997-7.183997 12.891995 6.889997 26.866988z m182.951924-20.863992a284.514881 284.514881 0 0 1-41.038983 14.565994l-87.095964 87.095964-9.841995-9.840996 72.235969-72.23597a181.081924 181.081924 0 0 1-28.342988 2.557999 68.102971 68.102971 0 0 0 4.034998-15.154994 204.602914 204.602914 0 0 0 83.651965-19.682991z m10.529995 65.346973l-18.501992 18.501992 37.003984 37.003985-8.955996 8.955996-37.002984-37.003985-19.682992 19.682992 38.872984 38.872984-9.053997 9.053996-38.872983-38.872984-31.393987 31.393987-9.841996-9.841996 87.686963-87.686963-8.954996-8.954996a201.256915 201.256915 0 0 1-45.467981 8.561996 89.654962 89.654962 0 0 0-1.081999-14.072994 194.564918 194.564918 0 0 0 78.730967-21.159991l6.789997 11.711995c-8.069997 3.935998-16.335993 7.281997-24.70099 10.431996l54.028977 54.029977-9.249996 9.249996z m186.297922 150.671937l-9.249996 9.250996-98.414959-98.413959-27.161988 27.161989c-19.682992 19.682992-51.174979 48.02698-80.699967 58.261975a57.178976 57.178976 0 0 0-2.754998-13.876994c27.751988-9.840996 55.209977-35.428985 73.809969-54.029977l36.314984-36.313985 51.569979 51.569978a170.157929 170.157929 0 0 0 5.214998-17.714992l11.907995 7.773997c-1.377999 6.593997-3.542999 15.155994-5.215998 21.552991z m-72.03897 46.05798a103.531957 103.531957 0 0 1-49.206979 6.003998 178.916925 178.916925 0 0 0 22.63499 44.089981 46.254981 46.254981 0 0 0-14.072994 2.360999 172.913927 172.913927 0 0 1-21.94599-49.206979 162.678932 162.678932 0 0 1-47.139981-19.091992 36.215985 36.215985 0 0 0 2.459999-12.695995 157.462934 157.462934 0 0 0 41.825983 18.403993 110.813953 110.813953 0 0 1-0.788-30.606988 127.052947 127.052947 0 0 1-54.126977-0.885999 68.889971 68.889971 0 0 0 1.278999-14.072994 119.17995 119.17995 0 0 0 84.635965-9.053996L632.157165 620.600169a41.431983 41.431983 0 0 0-14.959994-11.513995 101.169958 101.169958 0 0 0 5.609997-12.104995 10.431996 10.431996 0 0 0 8.168997 0 99.299958 99.299958 0 0 0 25.193989-11.415995l8.561997 11.415995a138.369942 138.369942 0 0 1-26.866989 12.104995l17.418993 17.419993a269.457887 269.457887 0 0 0 28.047988-17.616993l8.069997 10.628996c-9.053996 6.199997-17.910992 11.710995-26.669989 16.532993l31.393987 31.393987c0.787-7.479997 1.279999-20.764991 1.377999-30.802987l11.415995 2.361999a282.251881 282.251881 0 0 1-0.295 30.212987l-11.908995-2.066999 15.352994 15.352993-8.659996 8.659997-49.20798-49.20698c-5.805998 2.755999-11.709995 5.215998-17.221992 7.380997l36.215984 36.216985 2.361999 1.279zM624.481168 654.160155a94.47796 94.47796 0 0 0 1.279999 34.739986 87.391963 87.391963 0 0 0 32.968986 0zM479.321229 298.392305A216.510909 216.510909 0 0 1 726.141125 545.215201l8.659996 8.659996a226.352905 226.352905 0 0 0-264.142889-264.142889zM545.256201 726.100125a216.510909 216.510909 0 0 1-246.822896-246.822896l-8.659997-8.659997a226.352905 226.352905 0 0 0 264.044889 264.143889z" fill="#F97D7D" p-id="2587"></path></svg>